<?xml version="1.0" encoding="UTF-8" standalone="no"?>
<!-- Created with Inkscape (http://www.inkscape.org/) -->

<svg
   width="3072"
   height="3072"
   viewBox="0 0 3072 3072"
   version="1.1"
   id="svg6003"
   inkscape:version="1.2.2 (b0a8486541, 2022-12-01)"
   sodipodi:docname="drawing.svg"
   xmlns:inkscape="http://www.inkscape.org/namespaces/inkscape"
   xmlns:sodipodi="http://sodipodi.sourceforge.net/DTD/sodipodi-0.dtd"
   xmlns="http://www.w3.org/2000/svg"
   xmlns:svg="http://www.w3.org/2000/svg">
  <sodipodi:namedview
     id="namedview6005"
     pagecolor="#ffffff"
     bordercolor="#111111"
     borderopacity="1"
     inkscape:showpageshadow="0"
     inkscape:pageopacity="0"
     inkscape:pagecheckerboard="1"
     inkscape:deskcolor="#d1d1d1"
     inkscape:document-units="mm"
     showgrid="true"
     inkscape:zoom="0.70710678"
     inkscape:cx="1074.8023"
     inkscape:cy="1324.411"
     inkscape:window-width="2494"
     inkscape:window-height="1531"
     inkscape:window-x="0"
     inkscape:window-y="0"
     inkscape:window-maximized="1"
     inkscape:current-layer="layer1">
    <inkscape:grid
       type="xygrid"
       id="grid8302"
       spacingx="270.93333"
       spacingy="270.93333"
       empspacing="1"
       enabled="false"
       snapvisiblegridlinesonly="false" />
  </sodipodi:namedview>
  <defs
     id="defs6000">
    <linearGradient
       id="linearGradient26375"
       inkscape:swatch="solid">
      <stop
         style="stop-color:#e4c2a5;stop-opacity:1;"
         offset="0"
         id="stop26373" />
    </linearGradient>
    <linearGradient
       id="linearGradient21903"
       inkscape:swatch="solid">
      <stop
         style="stop-color:#f0d7c3;stop-opacity:1;"
         offset="0"
         id="stop21901" />
    </linearGradient>
    <linearGradient
       id="linearGradient21897"
       inkscape:swatch="solid">
      <stop
         style="stop-color:#f0d7c3;stop-opacity:1;"
         offset="0"
         id="stop21895" />
    </linearGradient>
    <linearGradient
       id="linearGradient21891"
       inkscape:swatch="solid">
      <stop
         style="stop-color:#f0d7c3;stop-opacity:1;"
         offset="0"
         id="stop21889" />
    </linearGradient>
    <linearGradient
       id="linearGradient21885"
       inkscape:swatch="solid">
      <stop
         style="stop-color:#f0d7c3;stop-opacity:1;"
         offset="0"
         id="stop21883" />
    </linearGradient>
    <linearGradient
       id="linearGradient21879"
       inkscape:swatch="solid">
      <stop
         style="stop-color:#f0d7c3;stop-opacity:1;"
         offset="0"
         id="stop21877" />
    </linearGradient>
    <linearGradient
       id="linearGradient21873"
       inkscape:swatch="solid">
      <stop
         style="stop-color:#f0d7c3;stop-opacity:1;"
         offset="0"
         id="stop21871" />
    </linearGradient>
    <linearGradient
       id="linearGradient21867"
       inkscape:swatch="solid">
      <stop
         style="stop-color:#f0d7c3;stop-opacity:1;"
         offset="0"
         id="stop21865" />
    </linearGradient>
    <linearGradient
       id="linearGradient21861"
       inkscape:swatch="solid">
      <stop
         style="stop-color:#f0d7c3;stop-opacity:1;"
         offset="0"
         id="stop21859" />
    </linearGradient>
    <linearGradient
       id="linearGradient21855"
       inkscape:swatch="solid">
      <stop
         style="stop-color:#f0d7c3;stop-opacity:1;"
         offset="0"
         id="stop21853" />
    </linearGradient>
    <linearGradient
       id="linearGradient21849"
       inkscape:swatch="solid">
      <stop
         style="stop-color:#f0d7c3;stop-opacity:1;"
         offset="0"
         id="stop21847" />
    </linearGradient>
    <linearGradient
       id="linearGradient21843"
       inkscape:swatch="solid">
      <stop
         style="stop-color:#f0d7c3;stop-opacity:1;"
         offset="0"
         id="stop21841" />
    </linearGradient>
    <linearGradient
       id="linearGradient21837"
       inkscape:swatch="solid">
      <stop
         style="stop-color:#f0d7c3;stop-opacity:1;"
         offset="0"
         id="stop21835" />
    </linearGradient>
    <linearGradient
       id="linearGradient21831"
       inkscape:swatch="solid">
      <stop
         style="stop-color:#f0d7c3;stop-opacity:1;"
         offset="0"
         id="stop21829" />
    </linearGradient>
    <linearGradient
       id="linearGradient11059"
       inkscape:swatch="solid">
      <stop
         style="stop-color:#000000;stop-opacity:1;"
         offset="0"
         id="stop11057" />
    </linearGradient>
    <linearGradient
       id="linearGradient11051"
       inkscape:swatch="solid">
      <stop
         style="stop-color:#000000;stop-opacity:1;"
         offset="0"
         id="stop11049" />
    </linearGradient>
    <linearGradient
       id="linearGradient11043"
       inkscape:swatch="solid">
      <stop
         style="stop-color:#000000;stop-opacity:1;"
         offset="0"
         id="stop11041" />
    </linearGradient>
    <linearGradient
       id="linearGradient9397"
       inkscape:swatch="solid">
      <stop
         style="stop-color:#ffddb5;stop-opacity:1;"
         offset="0"
         id="stop9395" />
    </linearGradient>
  </defs>
  <g
     inkscape:label="Layer 1"
     inkscape:groupmode="layer"
     id="layer1">
    <path
       style="fill:none;stroke:#92c8ff;stroke-width:120;stroke-linecap:round;stroke-dasharray:none;stroke-opacity:0.74379522;fill-opacity:1;paint-order:normal;stroke-linejoin:round"
       d="m 394.49397,515.19023 c 116.71518,17.69306 249.69117,112.787 335.13345,190.09949 85.44233,77.31245 157.05812,147.541 278.92488,151.55981 232.0392,7.65198 505.6278,35.3647 648.4079,-166.19551 199.1099,-209.81753 534.8854,-294.8884 799.0707,-160.92204 219.9722,94.95892 416.7185,302.18271 418.9693,553.03792 -10.6638,263.5076 -228.9836,480.514 -471.2629,555.9021 -224.0915,87.6478 -419.6459,240.7275 -652.7403,305.6128 -216.1459,27.7143 -380.7135,-164.8921 -443.3908,-351.3056 M 425.30033,530.20358"
       id="path14265"
       sodipodi:nodetypes="cssssssss" />
    <path
       style="fill:#edceb8;fill-opacity:1;stroke:#f7e2c6;stroke-width:40;stroke-opacity:0.72621626;paint-order:normal;stroke-dasharray:none"
       d="m 197.68907,1632.4719 c -9.52844,29.5779 -31.402,52.3144 -47.87728,77.9164 -13.50039,14.2375 -17.76442,37.3644 -26.93255,55.7525 2.96978,25.2088 23.72778,47.0625 46.6811,57.4485 16.08907,6.9759 11.40843,27.2096 30.58471,32.1982 19.49718,11.3783 42.86458,9.5646 63.49737,17.7986 20.01921,1.6535 40.15745,3.2717 59.29579,10.8313 20.27338,12.4511 43.3637,1.9222 60.62051,-10.6361 10.71608,-16.3235 -9.32805,-36.3315 -7.43905,-55.0434 0.38682,-18.3763 8.73276,-37.0851 -7.92868,-51.1624 -5.10409,-20.8673 -28.94164,-43.1258 -7.64016,-62.4559 18.09857,-15.946 20.46559,-39.6773 16.23581,-61.949 6.60638,-16.8817 8.66456,-40.0003 24.55885,-51.1465 24.99919,-2.3653 50.86795,-11.3397 70.40788,-26.6218 17.19914,-20.8373 7.83613,-46.5328 9.31158,-69.2146 -6.54774,-24.0121 -36.18063,-24.4704 -50.56239,-41.7963 -19.38998,-17.0917 -33.64056,10.5521 -48.4014,19.4686 -19.0556,-0.034 -38.03746,-10.8632 -58.36847,-8.8433 -21.52741,-7.0687 -43.07238,-0.8413 -62.49698,9.3993 -20.11682,6.6311 -27.82023,29.5281 -38.57751,45.6765 -8.62008,21.292 -12.87837,44.1844 -23.03239,64.8826 2.56069,15.83 -0.88424,31.7089 -1.93658,47.4969 z"
       id="path9393"
       sodipodi:nodetypes="cccccccccccccccccccccccccc" />
    <path
       style="fill:#edceb8;fill-opacity:1;stroke:#f7e2c6;stroke-width:40;stroke-opacity:0.72621626;paint-order:normal;stroke-dasharray:none"
       d="m 337.24068,1012.9007 c 34.68429,-9.48 70.55008,-2.6717 105.77691,-2.9061 22.3345,4.0728 47.43828,-6.4266 71.05339,-9.1769 22.54452,-18.82484 30.58528,-52.76114 26.1269,-81.5696 -3.4197,-20.00082 19.14457,-28.26633 11.84634,-50.00089 -1.31052,-26.08786 -17.85041,-47.57969 -22.92576,-72.77855 -11.06254,-20.44153 -22.23462,-40.97591 -27.01793,-64.30027 -0.76227,-27.51845 -25.57046,-43.22847 -48.65443,-52.00295 -22.59407,-0.0555 -29.29825,32.02146 -48.62215,42.02886 -18.04842,11.25051 -41.45418,15.00017 -44.55247,40.04802 -16.98823,18.14611 -23.47298,55.3221 -55.67653,46.91296 -26.89864,-7.44686 -51.38785,5.27279 -70.28972,23.46029 -20.53503,4.2792 -44.23529,16.91054 -65.08928,8.56283 -18.10654,-22.72392 -43.1664,-42.10922 -70.333722,-51.37247 -31.068535,-3.4811 -50.040112,21.84565 -72.948575,34.76514 -19.121631,21.53428 -0.819266,50.5337 -8.507102,75.42805 -4.292568,29.59834 31.505058,25.9168 49.481725,34.57695 12.022045,18.4833 13.538548,43.72449 28.357377,62.14414 6.770177,25.32849 26.433387,42.26249 48.643277,54.60339 19.15077,15.295 46.20764,8.2733 68.65812,8.4795 26.08178,-5.1183 50.95478,-15.4748 77.43168,-18.7314 13.71671,-12.4952 31.28018,-19.203 47.24192,-28.1712 z"
       id="path9393-59"
       sodipodi:nodetypes="cccccccccccccccccccccccccc" />
    <path
       style="fill:#edceb8;fill-opacity:1;stroke:#f7e2c6;stroke-width:40;stroke-opacity:0.72621626;paint-order:normal;stroke-dasharray:none"
       d="m 706.79116,929.09188 c -19.48898,4.5586 -44.37937,11.85801 -37.34161,36.77759 -11.34608,11.31795 -36.13124,18.25172 -20.71163,36.88913 -9.48831,32.0823 9.84824,56.6045 35.31656,72.6753 11.55259,24.8269 39.94055,30.1012 64.16187,38.9428 31.08073,3.6405 46.39363,36.6684 69.26021,54.4632 26.18158,22.1946 55.34631,45.2263 59.00262,81.9836 8.81753,32.0297 39.97881,47.608 58.58729,72.8341 16.57474,30.4009 52.06179,28.9836 82.09553,30.4298 28.7747,7.1047 62.1862,-1.7172 87.5203,16.37 10.2679,25.4424 42.0059,28.5418 56.6746,50.4755 32.1915,11.6064 18.4298,-36.2785 42.9969,-46.1369 19.9302,-22.5487 -17.2922,-38.8648 -22.4441,-60.7082 -26.7201,-12.3093 -45.9448,-36.6206 -60.5643,-62.2579 -19.758,-18.1296 -29.3593,-43.0201 -43.259,-63.4487 -25.6228,-10.7913 -53.1218,-16.1597 -79.27542,-25.5152 -36.85085,-13.4425 -58.91162,-52.443 -59.85008,-90.2975 5.89728,-27.3982 -5.79182,-53.1301 -21.6206,-74.68452 -17.16392,-28.10539 -46.94803,-41.39131 -74.81837,-55.58937 -23.74135,-16.76996 -52.60637,-26.70414 -81.05176,-30.08189 -20.0105,-0.58378 -39.33907,1.23798 -54.67901,16.87916 z"
       id="path11039" />
    <path
       style="fill:#edceb8;fill-opacity:1;stroke:#f7e2c6;stroke-width:40;stroke-opacity:0.72621626;paint-order:normal;stroke-dasharray:none"
       d="M 476.60895,63.766794 C 454.15177,53.07948 398.7248,24.718825 395.25054,64.785602 c 2.16462,22.31622 -2.50945,48.151118 -20.14111,63.702148 -22.22469,11.93172 -34.24613,35.31253 -42.65998,57.28288 -15.26653,23.09284 -46.54399,42.1047 -41.07682,73.42357 11.0076,20.25258 39.8851,27.69128 58.77451,41.87593 27.98675,4.27397 42.5879,31.53329 39.36833,57.86945 6.76593,19.29384 25.38672,35.89728 44.74871,42.65592 22.9284,3.82279 37.7742,26.71162 59.47187,33.96307 27.42212,1.25878 55.80993,13.56107 80.33537,-5.49053 29.30388,-9.51383 30.83578,-46.89355 38.85045,-72.23669 5.65467,-22.68378 11.17676,-47.22268 -16.31465,-57.39267 -9.37691,-26.10745 12.59894,-50.96232 27.21044,-71.12812 12.58681,-17.96298 26.24056,-40.8885 18.0406,-63.65661 -7.64174,-24.58595 -28.35148,-40.10959 -46.64051,-56.49088 -16.04039,-15.893944 -36.8189,-39.812104 -61.9038,-28.79869 -24.8615,11.994303 -45.25058,13.546278 -56.705,-16.597586 z"
       id="path11047" />
    <path
       style="fill:#edceb8;fill-opacity:1;stroke:#f7e2c6;stroke-width:40;stroke-opacity:0.72621626;paint-order:normal;stroke-dasharray:none"
       d="m 895.90582,1870.1301 c -40.63082,18.331 -85.86592,16.947 -128.95347,24.0626 -28.13659,-0.6575 -56.8394,17.0647 -85.22143,25.0098 -23.95522,27.42 -27.22225,70.5314 -16.17893,104.9413 8.06432,23.8269 -17.96199,38.3213 -4.81269,63.5192 6.66163,31.6889 31.07975,54.7982 42.17888,84.6687 17.50784,22.8849 35.16782,45.8624 45.54591,73.4943 6.26775,33.5468 39.68907,47.9739 69.65489,54.2429 27.67572,-4.3116 29.66661,-44.8875 51.38758,-60.8868 19.91831,-17.2741 47.85017,-26.4024 46.78845,-57.6724 17.28332,-25.5119 18.01712,-72.2885 59.07841,-68.2345 34.37918,3.904 61.89908,-16.4175 81.51758,-42.351 24.3143,-9.2202 50.8853,-29.2805 78.0379,-23.1018 26.5752,24.3142 61.0171,43.1925 96.0774,49.2685 38.7162,-1.76 57.0363,-36.4485 82.5818,-56.7083 19.2389,-30.074 -8.7925,-62.0342 -4.2049,-94.006 -0.4815,-37.0733 -43.5998,-25.6264 -67.2898,-32.7455 -18.3027,-20.3016 -25.0528,-50.9135 -46.7681,-70.5946 -13.1995,-29.7007 -40.5584,-46.6237 -70.1451,-57.4291 -26.4138,-15.0155 -58.1821,-1.173 -85.7113,2.9263 -30.9433,11.3228 -59.39109,28.8254 -91.17916,37.945 -14.37311,17.9586 -34.57822,29.5763 -52.38388,43.6515 z"
       id="path9393-7"
       sodipodi:nodetypes="cccccccccccccccccccccccccc" />
    <path
       style="fill:#edceb8;fill-opacity:1;stroke:#f7e2c6;stroke-width:40;stroke-opacity:0.72621626;paint-order:normal;stroke-dasharray:none"
       d="m 1803.2894,1291.506 c -31.2755,-34.2851 -44.5281,-79.4997 -65.4982,-119.8415 -8.4445,-28.0582 -35.2616,-50.7354 -52.2991,-76.2556 -34.88,-14.8439 -78.6016,-4.1413 -109.0859,17.9109 -20.9736,15.683 -43.7312,-5.3888 -64.418,15.7698 -29.2077,16.8362 -44.1848,48.4719 -70.1585,69.1119 -16.9888,24.7244 -34.02,49.6292 -58.0114,68.832 -31.1739,17.047 -34.6482,54.7863 -31.1659,86.4686 13.2133,25.9957 54.0131,14.8498 76.8682,31.1744 23.5341,14.1284 41.597,38.8206 72.2005,27.6618 30.8348,8.8578 77.3648,-5.5366 86.6259,36.4104 7.2495,35.2856 36.2567,55.9519 68.2636,66.9845 16.9846,21.0825 45.4265,40.8941 48.0888,69.7631 -15.4722,34.1599 -23.0219,74.3481 -17.7018,111.0099 14.257,37.7468 54.5087,44.6642 82.8167,63.3966 35.9819,9.3185 58.5503,-28.7542 91.6744,-34.549 36.5342,-12.4606 11.2676,-51.4326 10.6553,-77.1789 14.1752,-24.6759 42.2886,-41.2516 54.7466,-69.1043 25.1268,-22.6637 33.0309,-55.21 34.1607,-87.9837 6.3218,-30.9943 -17.6467,-57.9594 -30.6024,-83.8788 -21.2083,-26.9631 -47.7256,-49.459 -67.0266,-77.9703 -22.4189,-8.4193 -40.4479,-24.66 -60.1332,-37.7316 z"
       id="path9393-5"
       sodipodi:nodetypes="cccccccccccccccccccccccccc" />
    <path
       style="fill:#edceb8;fill-opacity:1;stroke:#f7e2c6;stroke-width:40;stroke-opacity:0.72621626;paint-order:normal;stroke-dasharray:none"
       d="m 2342.4787,976.90286 c -15.6361,26.85434 -41.8676,44.38454 -63.439,65.86884 -16.2339,11.0193 -25.3472,32.6985 -38.2372,48.6992 -2.4925,25.2605 13.1092,51.0493 33.3089,66.1057 14.224,10.2567 5.3228,29.0204 22.9877,37.9962 16.6113,15.2864 39.8256,18.5142 58.219,30.9719 19.2019,5.8984 38.5276,11.7877 55.6053,23.2669 17.1401,16.5003 41.9484,11.1555 61.4925,2.5801 13.9604,-13.6528 -1.3389,-37.486 4.5098,-55.3605 4.3096,-17.868 16.465,-34.358 3.2012,-51.674 -0.5213,-21.4762 -19.0447,-48.3193 5.8993,-62.6443 21.0911,-11.7046 28.4807,-34.3799 29.1139,-57.0408 10.0653,-15.0774 17.0221,-37.22035 34.9331,-44.70787 24.9264,3.03813 52.1162,-0.19372 74.4733,-10.94148 21.2591,-16.67504 17.6104,-43.77872 23.9046,-65.61966 -1.2588,-24.85697 -30.1074,-31.64469 -40.4493,-51.64638 -15.2842,-20.84439 -35.1192,3.11033 -51.4459,8.66226 -18.607,-4.1105 -34.8325,-18.74986 -55.1249,-21.12651 -19.5166,-11.51091 -41.895,-10.03723 -63.0609,-4.18971 -21.0696,2.17349 -33.4935,22.89214 -47.4567,36.36509 -12.9759,18.95471 -22.0335,40.40599 -36.3808,58.45244 -0.8854,16.01125 -7.6479,30.78545 -12.0537,45.98265 z"
       id="path9393-9"
       sodipodi:nodetypes="cccccccccccccccccccccccccc" />
    <path
       style="fill:#edceb8;fill-opacity:1;stroke:#f7e2c6;stroke-width:40;stroke-opacity:0.72621626;paint-order:normal;stroke-dasharray:none"
       d="m 1947.465,125.70147 c -3.7651,-28.426111 -10.6801,-64.9379 -47.1967,-58.40003 -14.5448,-17.764661 -20.9533,-54.075062 -49.689,-34.705301 -44.4104,-18.029177 -82.086,6.099547 -108.5723,40.15639 -37.018,12.987918 -48.5208,52.722251 -64.5249,86.015461 -9.5512,43.80283 -58.7893,61.00137 -87.3686,91.1069 -35.3174,34.21463 -72.2469,72.56509 -125.1668,72.62098 -46.9036,8.07785 -73.4864,50.32062 -112.0636,73.31249 -45.6697,19.36626 -48.6279,70.161 -54.9035,112.77892 -14.1666,40.02892 -6.2765,88.9033 -35.6189,122.4859 -37.7151,11.06994 -46.587,55.88567 -79.9172,73.72229 -21.0644,44.26893 49.1386,31.36644 59.7474,67.7762 29.3528,31.57921 57.8379,-19.20174 89.7041,-23.48235 21.299,-36.36935 58.6581,-60.36826 97.2619,-77.6151 28.6204,-25.62642 65.4552,-35.82342 96.5316,-52.77489 18.9806,-35.01776 30.4929,-73.47146 47.501,-109.44754 24.3358,-50.65438 83.0362,-76.63579 137.1392,-72.66278 38.2357,12.25207 76.5632,-0.80354 109.5153,-20.34739 42.4795,-20.52834 65.6008,-61.12921 89.7539,-98.87355 27.2409,-31.49652 45.4545,-71.25725 54.2612,-111.33953 3.6398,-28.44819 3.7543,-56.26162 -16.3941,-80.32707 z"
       id="path11039-7" />
    <path
       style="fill:#edceb8;fill-opacity:1;stroke:#f7e2c6;stroke-width:40;stroke-opacity:0.72621626;paint-order:normal;stroke-dasharray:none"
       d="m 2899.9009,429.85873 c 17.2495,-13.59668 38.5927,-32.43014 20.0058,-53.9239 6.012,-16.52694 27.4205,-34.94802 3.4252,-46.2989 -5.4937,-36.30047 -36.1196,-51.6782 -68.9084,-55.80358 -23.0312,-19.30153 -53.6996,-11.33822 -81.8862,-8.85853 -32.5847,10.83983 -63.1682,-14.8634 -94.1731,-21.91268 -36.3465,-9.88011 -76.0473,-19.20453 -96.7801,-54.03688 -23.6634,-27.73263 -61.8814,-28.72029 -92.1112,-45.13633 -30.6156,-22.50529 -65.227,-4.58873 -95.7504,7.945 -31.9042,6.32416 -61.0082,30.63459 -94.6017,24.44259 -22.0406,-20.51082 -55.0268,-8.82746 -79.8092,-23.80387 -37.3944,3.43934 -1.4414,44.63059 -21.2728,65.85694 -9.3194,31.68245 35.266,30.58384 50.5476,49.89758 32.2833,-0.19522 62.6999,15.02463 89.1563,33.70497 28.071,8.82807 49.1923,29.10038 72.5103,42.93855 30.4864,-1.19373 60.3151,-8.65003 90.6613,-11.51767 42.8793,-3.78187 82.9478,24.71862 101.4898,61.90583 6.8838,29.97447 30.4716,50.11187 56.2305,64.17165 30.1334,19.9497 65.9163,19.29962 100.2214,20.44633 31.3977,5.6237 64.7079,2.06988 94.5511,-7.80521 20.1601,-8.7283 38.5234,-19.53018 46.4938,-42.21189 z"
       id="path11039-3" />
    <path
       style="fill:#edceb8;fill-opacity:1;stroke:#f7e2c6;stroke-width:40;stroke-opacity:0.72621626;paint-order:normal;stroke-dasharray:none"
       d="m 111.90627,2645.7201 c -21.133032,27.1424 -75.97044,93.5416 -22.89301,110.1857 30.78571,3.7333 64.28384,17.7526 80.02743,46.2046 9.48521,33.5757 37.4771,56.7861 64.64022,74.7035 26.63497,27.5074 42.98217,75.4216 86.912,77.3801 30.63645,-8.8255 49.29711,-45.6082 74.08952,-66.8888 14.12076,-36.5237 55.29238,-48.1124 89.90138,-35.9081 28.07625,-3.3827 56.05523,-23.5789 70.95907,-47.7129 12.00251,-29.8266 47.34436,-43.0495 63.61045,-70.1911 9.88011,-36.6604 34.96346,-71.331 16.54846,-110.1378 -4.108,-42.4155 -54.13571,-55.6348 -85.97309,-74.0191 -28.94968,-14.4037 -60.44442,-29.1816 -82.38051,4.9143 -38.05759,4.8765 -65.07099,-32.218 -87.94811,-57.9676 -20.50595,-22.3579 -47.3961,-47.6372 -80.59244,-43.354 -35.48504,2.9869 -62.62883,26.3265 -90.20883,46.141 -26.25098,16.9228 -64.75279,37.8513 -57.36098,75.016 8.78324,37.1556 4.79732,65.1558 -39.33156,71.6342 z"
       id="path11047-6" />
    <path
       style="fill:#edceb8;fill-opacity:1;stroke:#f7e2c6;stroke-width:40;stroke-opacity:0.72621626;paint-order:normal;stroke-dasharray:none"
       d="m 1623.1599,2429.0104 c -23.3822,-18.4384 -80.5658,-66.2621 -95.2571,-20.4059 -3.3963,26.6289 -15.7108,55.5508 -40.4238,69.0267 -29.1147,8.0312 -49.3559,32.1376 -65.0108,55.5548 -23.9536,22.9088 -65.5167,36.8032 -67.4469,74.8195 7.4757,26.5669 39.216,42.9167 57.5045,64.4914 31.5403,12.4186 41.3517,48.1198 30.6023,78.0129 2.778,24.3216 20.1108,48.649 40.9221,61.6791 25.7544,10.5492 37.0116,41.2127 60.419,55.4382 31.6814,8.7484 61.559,30.6466 95.2497,14.9136 36.7378,-3.3292 48.4483,-46.5638 64.5325,-74.0247 12.6229,-24.9826 25.5835,-52.1662 -3.8135,-71.337 -4.0178,-32.9697 28.2366,-56.1549 50.6484,-75.8201 19.4632,-17.631 41.4894,-40.7726 37.9593,-69.5311 -2.3958,-30.7327 -22.4541,-54.3539 -39.4585,-78.3338 -14.5085,-22.814 -32.4189,-56.254 -64.6291,-50.0542 -32.2098,7.4044 -56.4262,3.8043 -61.7981,-34.4294 z"
       id="path11047-1" />
    <path
       style="fill:#edceb8;fill-opacity:1;stroke:#f7e2c6;stroke-width:40;stroke-opacity:0.72621626;paint-order:normal;stroke-dasharray:none"
       d="m 2415.2556,2579.0532 c -27.7088,6.1584 -97.4906,19.5742 -72.4751,58.0587 17.6211,18.5555 31.5615,45.0796 26.6221,71.4531 -11.6133,26.3434 -6.0063,55.8202 1.8554,81.4944 2.4854,31.497 -12.299,70.568 14.6161,94.9028 24.127,10.4882 55.3299,-3.102 82.2857,-3.6084 28.1789,-15.8116 60.4598,-1.544 76.0607,24.4095 19.6377,12.6048 48.0505,14.4631 70.2157,6.9443 23.3115,-12.6648 52.7429,-2.5008 77.3554,-11.2167 25.5533,-18.1275 59.7317,-26.9984 68.4141,-61.3629 19.6799,-29.1403 -5.1956,-63.8434 -15.7853,-92.2714 -10.845,-24.378 -23.1122,-50.3319 -54.9866,-40.1723 -26.7721,-16.9006 -24.4593,-54.695 -25.4782,-83.0987 -1.293,-25 -5.1118,-55.2137 -28.4798,-69.9368 -24.1425,-16.7506 -53.6762,-16.1703 -81.6346,-18.0617 -25.5932,-3.0324 -61.0846,-9.9556 -75.9159,17.5706 -13.9414,28.2517 -31.1936,43.9682 -62.6697,24.8955 z"
       id="path11047-9" />
    <path
       style="fill:#edceb8;fill-opacity:1;stroke:#f7e2c6;stroke-width:40;stroke-opacity:0.72621626;paint-order:normal;stroke-dasharray:none"
       d="m 2685.2449,1711.478 c -28.8803,-17.2814 -99.9056,-62.6056 -109.7316,-9.0763 0.05,30.3409 -9.5647,64.5437 -35.3142,83.2286 -31.4721,13.2194 -50.6693,43.1726 -64.8256,71.689 -23.5319,29.1485 -68.1086,50.7431 -64.7658,93.636 12.2277,28.6967 50.1742,42.4263 73.7991,63.961 37.153,9.3519 53.3219,47.9492 45.6023,83.014 6.6367,26.8604 29.589,51.619 54.8042,63.2104 30.3968,8.0945 47.4565,40.8355 75.7549,53.3909 36.7796,5.2176 73.4418,25.4362 108.9277,2.9209 40.6982,-9.0529 47.5625,-59.2117 61.6142,-92.323 10.5309,-29.8319 21.1214,-62.1799 -14.6071,-79.411 -9.2789,-36.3745 23.5176,-67.0351 45.7911,-92.3245 19.2632,-22.5821 40.601,-51.7124 32.4786,-83.4372 -7.1369,-34.102 -33.042,-57.6742 -55.5759,-82.0909 -19.5673,-23.4714 -44.487,-58.3609 -79.6942,-46.7461 -35.0323,12.965 -62.6985,12.4372 -74.2577,-29.6418 z"
       id="path11047-3" />
  </g>
</svg>
